<svg width="18" height="19" viewBox="0 0 18 19" fill="none" xmlns="http://www.w3.org/2000/svg">
<path d="M13.0914 10.4C13.7662 10.4 14.36 10.031 14.666 9.473L17.8871 3.632C17.9629 3.49558 18.0018 3.34172 17.9999 3.18565C17.9981 3.02957 17.9555 2.87669 17.8764 2.74214C17.7973 2.60758 17.6845 2.496 17.5491 2.41846C17.4137 2.34091 17.2603 2.30008 17.1043 2.3H3.78796L2.94219 0.5H0V2.3H1.7995L5.03861 9.131L3.82395 11.327C3.16713 12.533 4.03089 14 5.39851 14H16.1955V12.2H5.39851L6.38824 10.4H13.0914ZM4.64272 4.1H15.5747L13.0914 8.6H6.77513L4.64272 4.1ZM5.39851 14.9C4.40879 14.9 3.60801 15.71 3.60801 16.7C3.60801 17.69 4.40879 18.5 5.39851 18.5C6.38824 18.5 7.19802 17.69 7.19802 16.7C7.19802 15.71 6.38824 14.9 5.39851 14.9ZM14.396 14.9C13.4063 14.9 12.6055 15.71 12.6055 16.7C12.6055 17.69 13.4063 18.5 14.396 18.5C15.3858 18.5 16.1955 17.69 16.1955 16.7C16.1955 15.71 15.3858 14.9 14.396 14.9Z" fill="#352D48"/>
</svg>
