<svg width="25" height="25" viewBox="0 0 25 25" fill="none" xmlns="http://www.w3.org/2000/svg">
<path d="M11.9286 21.4714L10.2714 19.9629C4.38571 14.6257 0.5 11.0943 0.5 6.78571C0.5 3.25429 3.26571 0.5 6.78571 0.5C8.77429 0.5 10.6829 1.42571 11.9286 2.87714C13.1743 1.42571 15.0829 0.5 17.0714 0.5C20.5914 0.5 23.3571 3.25429 23.3571 6.78571C23.3571 11.0943 19.4714 14.6257 13.5857 19.9629L11.9286 21.4714Z" fill="#F5835E"/>
<rect x="9" y="9" width="15" height="15" rx="4.5" fill="#352D48" stroke="#F5835E"/>
<line x1="11.7323" y1="12.1739" x2="15.7727" y2="12.1739" stroke="#F5835E"/>
<line x1="12.0556" y1="16.5562" x2="20.9444" y2="16.5562" stroke="#F5835E"/>
<line x1="12.0556" y1="19.9786" x2="20.9444" y2="19.9786" stroke="#F5835E"/>
</svg>
