<svg width="20" height="17" viewBox="0 0 20 17" fill="none" xmlns="http://www.w3.org/2000/svg">
<path d="M12.8 4.5L14 5.7L7.2 12.5L6 11.3L12.8 4.5ZM2 0.5H18C19.11 0.5 20 1.39 20 2.5V6.5C19.4696 6.5 18.9609 6.71071 18.5858 7.08579C18.2107 7.46086 18 7.96957 18 8.5C18 9.03043 18.2107 9.53914 18.5858 9.91421C18.9609 10.2893 19.4696 10.5 20 10.5V14.5C20 15.61 19.11 16.5 18 16.5H2C1.46957 16.5 0.960859 16.2893 0.585786 15.9142C0.210714 15.5391 0 15.0304 0 14.5V10.5C1.11 10.5 2 9.61 2 8.5C2 7.96957 1.78929 7.46086 1.41421 7.08579C1.03914 6.71071 0.530433 6.5 0 6.5V2.5C0 1.96957 0.210714 1.46086 0.585786 1.08579C0.960859 0.710714 1.46957 0.5 2 0.5ZM2 2.5V5.04C2.60768 5.3904 3.11236 5.89466 3.46325 6.50205C3.81415 7.10944 3.9989 7.79854 3.9989 8.5C3.9989 9.20146 3.81415 9.89056 3.46325 10.4979C3.11236 11.1053 2.60768 11.6096 2 11.96V14.5H18V11.96C17.3923 11.6096 16.8876 11.1053 16.5367 10.4979C16.1858 9.89056 16.0011 9.20146 16.0011 8.5C16.0011 7.79854 16.1858 7.10944 16.5367 6.50205C16.8876 5.89466 17.3923 5.3904 18 5.04V2.5H2ZM7.5 4.5C8.33 4.5 9 5.17 9 6C9 6.83 8.33 7.5 7.5 7.5C6.67 7.5 6 6.83 6 6C6 5.17 6.67 4.5 7.5 4.5ZM12.5 9.5C13.33 9.5 14 10.17 14 11C14 11.83 13.33 12.5 12.5 12.5C11.67 12.5 11 11.83 11 11C11 10.17 11.67 9.5 12.5 9.5Z" fill="#352D48"/>
</svg>
